<svg width="20" height="13" viewBox="0 0 20 13" fill="none" xmlns="http://www.w3.org/2000/svg">
<path d="M1.06668 7.49998H2.13333C2.72244 7.49998 3.20001 8.01485 3.20001 8.64997V10.95C3.20001 11.5851 2.72244 12.1 2.13333 12.1H1.06668C0.477577 12.1 0 11.5851 0 10.95V8.64997C0 8.01485 0.477577 7.49998 1.06668 7.49998ZM6.36667 5.09998H7.43332C8.02242 5.09998 8.5 5.62231 8.5 6.26664V10.9333C8.5 11.5776 8.02242 12.1 7.43332 12.1H6.36667C5.77756 12.1 5.29999 11.5776 5.29999 10.9333V6.26664C5.29999 5.62231 5.77756 5.09998 6.36667 5.09998ZM11.7667 2.49998H12.8333C13.4224 2.49998 13.9 3.01574 13.9 3.65198V10.948C13.9 11.5842 13.4224 12.1 12.8333 12.1H11.7667C11.1776 12.1 10.7 11.5842 10.7 10.948V3.65198C10.7 3.01574 11.1776 2.49998 11.7667 2.49998ZM18.1333 0.0999756C18.7224 0.0999756 19.2 0.603655 19.2 1.22498V10.975C19.2 11.5963 18.7224 12.1 18.1333 12.1H17.0667C16.4776 12.1 16 11.5963 16 10.975V1.22498C16 0.603655 16.4776 0.0999756 17.0667 0.0999756H18.1333Z" fill="white"/>
</svg>
