<svg width="32" height="32" viewBox="0 0 32 32" fill="none" xmlns="http://www.w3.org/2000/svg">
<g clip-path="url(#clip0_53_645)">
<g filter="url(#filter0_i_53_645)">
<path d="M16 32C24.8366 32 32 24.8366 32 16C32 7.16344 24.8366 0 16 0C7.16344 0 0 7.16344 0 16C0 24.8366 7.16344 32 16 32Z" fill="url(#paint0_linear_53_645)"/>
</g>
<path d="M22.3226 19.4599C22.3226 22.9347 19.5889 25.9865 16.117 25.9865C19.3968 23.6009 15.7119 20.2221 15.7119 20.2221C18.9017 16.8942 19.1238 10.9227 19.0728 10.6797C20.9512 14.0135 21.3083 15.0338 21.7854 16.5852C22.0015 17.2843 22.3226 18.4246 22.3226 19.4599Z" fill="url(#paint1_linear_53_645)"/>
<path d="M18.0135 19.3369C14.0375 21.8995 14.7067 24.2761 16.117 25.9865C12.2101 25.7705 9.68042 22.8688 9.68042 19.928C9.68042 17.8785 10.2326 16.2401 10.9107 14.7217C12.8882 10.2956 16.048 6.01355 16.048 6.01355C17.2423 7.60395 18.0885 9.0293 18.8777 10.3496C18.8777 10.3496 22.6617 16.3421 18.0135 19.3369Z" fill="white"/>
</g>
<defs>
<filter id="filter0_i_53_645" x="0" y="0" width="32" height="36" filterUnits="userSpaceOnUse" color-interpolation-filters="sRGB">
<feFlood flood-opacity="0" result="BackgroundImageFix"/>
<feBlend mode="normal" in="SourceGraphic" in2="BackgroundImageFix" result="shape"/>
<feColorMatrix in="SourceAlpha" type="matrix" values="0 0 0 0 0 0 0 0 0 0 0 0 0 0 0 0 0 0 127 0" result="hardAlpha"/>
<feOffset dy="4"/>
<feGaussianBlur stdDeviation="2"/>
<feComposite in2="hardAlpha" operator="arithmetic" k2="-1" k3="1"/>
<feColorMatrix type="matrix" values="0 0 0 0 1 0 0 0 0 1 0 0 0 0 1 0 0 0 0.25 0"/>
<feBlend mode="normal" in2="shape" result="effect1_innerShadow_53_645"/>
</filter>
<linearGradient id="paint0_linear_53_645" x1="7.16418" y1="3.58209" x2="16" y2="32" gradientUnits="userSpaceOnUse">
<stop stop-color="#00BD75"/>
<stop offset="1" stop-color="#005736"/>
</linearGradient>
<linearGradient id="paint1_linear_53_645" x1="21.0149" y1="18.1493" x2="14.5671" y2="17.4329" gradientUnits="userSpaceOnUse">
<stop stop-color="#77ED5F"/>
<stop offset="1" stop-color="#448736"/>
</linearGradient>
<clipPath id="clip0_53_645">
<rect width="32" height="32" fill="white"/>
</clipPath>
</defs>
</svg>
