<svg width="11" height="16" viewBox="0 0 11 16" fill="none" xmlns="http://www.w3.org/2000/svg">
<path d="M7.20864 3.79192C6.86931 3.38802 6.38768 3.18608 5.76376 3.18608C4.90449 3.18608 4.31888 3.5081 4.00692 4.1467C3.91935 4.32681 3.8482 4.55605 3.79894 4.83987C3.68401 5.46209 3.11481 5.90419 2.47994 5.90419H0.942024C0.985809 4.68704 1.2102 3.69913 1.60426 2.94592C2.35954 1.51591 3.69496 0.800903 5.62146 0.800903C7.14296 0.800903 8.3525 1.22117 9.25008 2.06172C10.1477 2.90226 10.5964 4.0157 10.5964 5.39659C10.5964 6.46091 10.279 7.3997 9.64414 8.22387C9.22819 8.76967 8.54406 9.38098 7.59175 10.0523L6.45884 10.8547C5.75282 11.3568 5.26572 11.717 5.00848 11.9408C4.74578 12.1646 4.52685 12.4266 4.35172 12.7213H9.38143C10.071 12.7213 10.6238 13.278 10.6238 13.9603V15.1993H0.777832C0.805197 14.1732 1.02412 13.2289 1.44007 12.3829C1.84507 11.4277 2.79738 10.4125 4.29699 9.34823C5.59957 8.42036 6.44242 7.75447 6.82553 7.35058C7.41114 6.7229 7.70669 6.04064 7.70669 5.29289C7.70669 4.68704 7.53702 4.17944 7.20317 3.78101L7.20864 3.79192Z" fill="#00BD75"/>
</svg>
