<svg width="12" height="15" viewBox="0 0 12 15" fill="none" xmlns="http://www.w3.org/2000/svg">
<path d="M0.541016 14.3914V0.299805H3.47638V12.5256C3.47638 13.556 2.64512 14.3914 1.61974 14.3914H0.541016ZM2.01833 9.9583V7.64419H5.45898C6.30062 7.64419 6.95555 7.42827 7.42231 6.99493C7.88906 6.56159 8.1217 5.94807 8.1217 5.15437V5.13501C8.1217 4.3279 7.88906 3.7114 7.42231 3.28402C6.95555 2.85813 6.3021 2.64369 5.45898 2.64369H2.01833V0.299805H6.17763C7.163 0.299805 8.0239 0.499348 8.7633 0.899924C9.50122 1.3005 10.0761 1.8619 10.4881 2.58413C10.9 3.30636 11.1045 4.15367 11.1045 5.1231V5.14245C11.1045 6.10592 10.8985 6.94877 10.4881 7.67248C10.0761 8.39471 9.50122 8.95611 8.7633 9.35669C8.02539 9.75727 7.163 9.95681 6.17763 9.95681H2.01833V9.9583Z" fill="#00BD75"/>
</svg>
