<svg width="11" height="12" viewBox="0 0 11 12" fill="none" xmlns="http://www.w3.org/2000/svg">
<path d="M5.32152 11.3899C4.2591 11.3899 3.34485 11.1695 2.58175 10.7302C1.81716 10.2909 1.22742 9.664 0.812526 8.85094C0.397633 8.03787 0.190186 7.07292 0.190186 5.96054V5.95011C0.190186 4.83625 0.397633 3.87129 0.812526 3.05376C1.22742 2.23623 1.80827 1.60484 2.55656 1.15959C3.30484 0.714336 4.18798 0.490967 5.20446 0.490967C6.22095 0.490967 7.10112 0.70689 7.84348 1.14023C8.58584 1.57356 9.15928 2.18411 9.5638 2.97186C9.96832 3.75961 10.1713 4.68138 10.1713 5.73568V6.62469H1.59045V4.81838H8.83033L7.47896 6.50854V5.40509C7.47896 4.79306 7.38561 4.2808 7.19743 3.86682C7.00925 3.45284 6.74846 3.14311 6.41506 2.93463C6.08166 2.72615 5.69492 2.62191 5.25336 2.62191C4.81179 2.62191 4.42209 2.72913 4.08277 2.94356C3.74345 3.158 3.47673 3.4722 3.28558 3.88618C3.09443 4.30016 2.9996 4.80646 2.9996 5.40509V6.51896C2.9996 7.09228 3.09443 7.58369 3.28558 7.9932C3.47673 8.40271 3.75086 8.71692 4.10648 8.93582C4.4621 9.15472 4.88737 9.26343 5.37931 9.26343C5.76753 9.26343 6.10537 9.20088 6.38987 9.07728C6.67437 8.95369 6.90849 8.79733 7.08926 8.60821C7.27004 8.41909 7.39302 8.22699 7.45822 8.03192L7.47748 7.97384H10.0824L10.0528 8.08106C9.97573 8.46525 9.82311 8.85243 9.5964 9.24258C9.36969 9.63273 9.06296 9.99161 8.67771 10.3162C8.29245 10.6424 7.82273 10.903 7.26855 11.098C6.71438 11.2931 6.06537 11.3914 5.32004 11.3914L5.32152 11.3899Z" fill="#00BD75"/>
</svg>
