<svg width="11" height="15" viewBox="0 0 11 15" fill="none" xmlns="http://www.w3.org/2000/svg">
<path d="M4.41787 14.3914C3.54363 14.3914 2.78793 14.174 2.15374 13.7377C1.51806 13.3013 1.02908 12.6759 0.686794 11.8629C0.343026 11.0498 0.171143 10.0759 0.171143 8.94267V8.93224C0.171143 7.79306 0.343026 6.81768 0.686794 6.00759C1.03056 5.19751 1.51954 4.57505 2.15374 4.14172C2.78793 3.70838 3.54066 3.49246 4.40898 3.49246C4.90833 3.49246 5.36471 3.57436 5.7796 3.73667C6.1945 3.89899 6.55901 4.13278 6.87314 4.43507C7.18728 4.73737 7.43769 5.10072 7.62588 5.52363H7.68367V0.0853271H10.5212V14.177H9.46178C8.47937 14.177 7.68367 13.3773 7.68367 12.39H7.62588C7.43769 12.807 7.18876 13.1643 6.87759 13.4637C6.56642 13.763 6.20339 13.9923 5.7885 14.1516C5.3736 14.311 4.91722 14.3914 4.41787 14.3914ZM5.37064 12.0281C5.82998 12.0281 6.23599 11.9031 6.58568 11.6529C6.93538 11.4027 7.20654 11.0453 7.39769 10.5837C7.58883 10.1221 7.68367 9.57406 7.68367 8.94267V8.93224C7.68367 8.30681 7.58587 7.76328 7.39176 7.30165C7.19765 6.84002 6.92649 6.48263 6.57976 6.23245C6.23302 5.98228 5.82998 5.85719 5.36916 5.85719C4.90833 5.85719 4.48751 5.98079 4.14522 6.22799C3.80145 6.47518 3.53622 6.8281 3.34804 7.28825C3.15985 7.7469 3.0665 8.29639 3.0665 8.93373V8.94416C3.0665 9.57555 3.15837 10.1221 3.34359 10.5852C3.52881 11.0468 3.79405 11.4042 4.14078 11.6544C4.48751 11.9045 4.89648 12.0296 5.37064 12.0296V12.0281Z" fill="#00BD75"/>
</svg>
