<svg width="7" height="12" viewBox="0 0 7 12" fill="none" xmlns="http://www.w3.org/2000/svg">
<path d="M0.105974 11.3899V0.921368H2.94355V2.74704H3.00133C3.15692 2.10225 3.43845 1.6019 3.84742 1.24302C4.2549 0.885629 4.76463 0.705444 5.37363 0.705444C5.52922 0.705444 5.67739 0.715868 5.82112 0.735227C5.96337 0.754585 6.08636 0.78139 6.19008 0.812662V2.83341C6.19008 3.06869 5.97967 3.24888 5.74852 3.21165H5.74259C5.56182 3.18187 5.36622 3.16698 5.15878 3.16698C4.69202 3.16698 4.29343 3.25781 3.963 3.44097C3.63256 3.62265 3.37918 3.89069 3.20434 4.24213C3.02949 4.59356 2.94206 5.02392 2.94206 5.53171V9.60746C2.94206 10.5918 2.14784 11.3914 1.16692 11.3914H0.104492L0.105974 11.3899Z" fill="#00BD75"/>
</svg>
