<svg width="11" height="16" viewBox="0 0 11 16" fill="none" xmlns="http://www.w3.org/2000/svg">
<path d="M5.58258 15.3957C3.74912 15.3957 2.46844 14.7571 1.72958 13.4799C0.990718 12.2027 0.624023 10.3798 0.624023 8.01096C0.624023 5.64216 0.990718 3.81917 1.72958 2.53106C2.46844 1.24296 3.74912 0.60437 5.58258 0.60437C7.41605 0.60437 8.70221 1.24842 9.44107 2.53106C10.1745 3.81917 10.5411 5.64216 10.5411 8.01096C10.5411 10.3798 10.1745 12.2027 9.43559 13.4799C8.69674 14.7571 7.41605 15.3957 5.58258 15.3957ZM7.24091 11.7879C7.49815 10.9201 7.6295 9.65929 7.6295 8.01096C7.6295 6.36262 7.49814 5.00357 7.23544 4.17394C6.97273 3.34432 6.42543 2.9295 5.58258 2.9295C4.73974 2.9295 4.18697 3.34432 3.91879 4.17394C3.64514 5.00357 3.51378 6.28621 3.51378 8.01096C3.51378 9.7357 3.65061 10.9201 3.91879 11.7934C4.18697 12.6667 4.74521 13.1033 5.58258 13.1033C6.41996 13.1033 6.97273 12.6667 7.24091 11.7879Z" fill="#00BD75"/>
</svg>
