<svg width="4" height="16" viewBox="0 0 4 16" fill="none" xmlns="http://www.w3.org/2000/svg">
<path d="M2.04597 3.58263C1.61774 3.58263 1.25767 3.4352 0.962802 3.13887C0.667932 2.84253 0.52124 2.49259 0.52124 2.08903C0.52124 1.68548 0.667932 1.32958 0.962802 1.0392C1.25767 0.748816 1.61922 0.60437 2.04597 0.60437C2.47272 0.60437 2.83278 0.748816 3.12469 1.0392C3.4166 1.32958 3.56181 1.67952 3.56181 2.08903C3.56181 2.49854 3.4166 2.84253 3.12469 3.13887C2.83278 3.4352 2.4742 3.58263 2.04597 3.58263ZM0.617554 15.3899V4.92136H3.4655V13.5911C3.4655 14.5858 2.66387 15.3914 1.67405 15.3914H0.617554V15.3899Z" fill="#00BD75"/>
</svg>
