<svg width="14" height="12" viewBox="0 0 14 12" fill="none" xmlns="http://www.w3.org/2000/svg">
<path d="M0.000244141 10.2666C0.000244141 10.2098 0.000244141 10.1531 0.000244141 10.0963C0.0150098 10.0379 0.0305957 9.97941 0.0448145 9.92067C0.472744 8.15701 1.41009 6.75374 2.8336 5.70122C3.97657 4.85614 5.26528 4.37032 6.62919 4.08115C7.02923 3.99631 7.43419 3.93615 7.84927 3.86236V3.71196C7.84927 2.61489 7.84927 1.51753 7.84982 0.420463C7.84982 0.354627 7.852 0.287372 7.86513 0.223523C7.90997 0.00870587 8.03356 -0.0591162 8.21349 0.0543936C8.35185 0.141512 8.47845 0.254455 8.59521 0.372221C10.3045 2.0953 12.0121 3.8198 13.7159 5.54855C13.8293 5.66348 13.9065 5.817 14.0002 5.95265V6.09453C13.922 6.20804 13.8583 6.33659 13.7637 6.43251C12.0627 8.15701 10.3583 9.8781 8.65235 11.5975C8.54517 11.7053 8.42513 11.8012 8.30235 11.8898C8.20282 11.9616 8.08935 12.0442 7.96275 11.9724C7.83532 11.9 7.84817 11.7578 7.84817 11.6307C7.84817 10.4201 7.84872 9.20953 7.84899 7.99895C7.84899 7.95382 7.84517 7.90871 7.84271 7.85904C6.55044 7.75802 5.2888 7.84741 4.04794 8.18255C2.69579 8.54776 1.48911 9.1837 0.519775 10.2547C0.471104 10.3086 0.406846 10.3509 0.343135 10.3855C0.163486 10.4831 0.083916 10.453 0.000244141 10.2666Z" fill="#EE8100"/>
</svg>
