<svg width="11" height="12" viewBox="0 0 11 12" fill="none" xmlns="http://www.w3.org/2000/svg">
<path d="M5.71088 11.3914C4.65439 11.3914 3.74163 11.1695 2.97111 10.7272C2.2006 10.2849 1.60641 9.65504 1.18855 8.83751C0.770697 8.01998 0.561768 7.05205 0.561768 5.93222V5.9218C0.561768 4.80197 0.772179 3.83702 1.193 3.02693C1.61382 2.21684 2.208 1.59141 2.97556 1.15212C3.74311 0.712823 4.6455 0.492432 5.68125 0.492432C6.62661 0.492432 7.44603 0.669638 8.13949 1.02405C8.83295 1.37846 9.37528 1.85945 9.76646 2.46404C10.1591 3.07011 10.374 3.75065 10.4125 4.50563V4.57413H7.76905L7.75868 4.48628C7.67422 3.99189 7.46085 3.57493 7.11708 3.2369C6.77331 2.89886 6.30655 2.7291 5.7183 2.7291C5.25895 2.7291 4.85887 2.85717 4.51807 3.11479C4.17726 3.37241 3.91499 3.74022 3.73125 4.21823C3.54603 4.69624 3.45417 5.26807 3.45417 5.93222V5.94264C3.45417 6.62615 3.54603 7.20691 3.73125 7.68641C3.91647 8.16442 4.17875 8.52926 4.51807 8.78092C4.85887 9.0311 5.26191 9.15619 5.72866 9.15619C6.29914 9.15619 6.75701 8.99536 7.10374 8.67222C7.45047 8.35057 7.66829 7.92468 7.76016 7.39752L7.77942 7.30967H10.4229V7.36774C10.3769 8.13018 10.1576 8.81369 9.76202 9.41827C9.36639 10.0243 8.82406 10.5038 8.13356 10.8583C7.44306 11.2127 6.63551 11.3899 5.70941 11.3899L5.71088 11.3914Z" fill="#00BD75"/>
</svg>
