<svg width="7" height="14" viewBox="0 0 7 14" fill="none" xmlns="http://www.w3.org/2000/svg">
<path d="M5.27142 13.3914C4.11861 13.3914 3.26363 13.1472 2.70649 12.6587C2.14935 12.1703 1.87078 11.3662 1.87078 10.2463V4.85719H0.423096V2.70837H1.87078V0.14856H4.73798V2.70837H6.64204V4.85719H4.73798V9.93512C4.73798 10.4236 4.84615 10.7631 5.06397 10.9552C5.28031 11.1473 5.60333 11.2426 6.03156 11.2426C6.16047 11.2426 6.27457 11.2381 6.37236 11.2277C6.37236 11.2277 6.37385 11.2277 6.37533 11.2277C6.51906 11.2128 6.64501 11.3245 6.64501 11.4704V12.7198C6.64501 13.0474 6.39903 13.3244 6.07305 13.3571C6.07008 13.3571 6.0686 13.3571 6.06564 13.3571C5.83597 13.3795 5.57221 13.3914 5.2729 13.3914H5.27142Z" fill="#00BD75"/>
</svg>
